# xmcd
#
# Track frame offsets:
# 150
# 14512
# 30597
# 46642
# 61695
# 78547
# 94872
# 111850
# 126417
# 144087
# 164090
# 181197
#
# Disc length: 2687 seconds
#
# Revision: 3
# Processed by: cddbd v1.5.2PL0 Copyright (c) Steve Scherf et al.
# Submitted via: Axialis_AX_CDPlayer 2.6
#
DISCID=960a7d0c
DTITLE=Shannon Noll - Turn It Up
DYEAR=2007
DGENRE=Rock
TTITLE0=Loud
TTITLE1=Everybody Needs A Little Help
TTITLE2=In Pieces
TTITLE3=Crashing Down
TTITLE4=Is You
TTITLE5=Walls
TTITLE6=Breakdown
TTITLE7=Way Out
TTITLE8=Sorry Is Just Too Late
TTITLE9=Afterburn
TTITLE10=Won't Let You Go
TTITLE11=Only Thing Misisng
EXTD=with bonus DVD
EXTT0=
EXTT1=
EXTT2=
EXTT3=
EXTT4=
EXTT5=
EXTT6=
EXTT7=
EXTT8=
EXTT9=
EXTT10=
EXTT11=
PLAYORDER=
